<svg width="120" height="40" viewBox="0 0 120 40" fill="none" xmlns="http://www.w3.org/2000/svg">
  <path d="M26.6667 5.33333C26.6667 2.38781 24.2789 0 21.3333 0H5.33333C2.38781 0 0 2.38781 0 5.33333V21.3333C0 24.2789 2.38781 26.6667 5.33333 26.6667H21.3333C24.2789 26.6667 26.6667 24.2789 26.6667 21.3333V5.33333Z" fill="url(#paint0_linear)"/>
  <path d="M14.6667 6.66667C10.2484 6.66667 6.66667 10.2484 6.66667 14.6667C6.66667 19.0849 10.2484 22.6667 14.6667 22.6667C19.0849 22.6667 22.6667 19.0849 22.6667 14.6667C22.6667 10.2484 19.0849 6.66667 14.6667 6.66667ZM14.6667 20C11.7211 20 9.33333 17.6122 9.33333 14.6667C9.33333 11.7211 11.7211 9.33333 14.6667 9.33333C17.6122 9.33333 20 11.7211 20 14.6667C20 17.6122 17.6122 20 14.6667 20Z" fill="white"/>
  <circle cx="14.6667" cy="14.6667" r="4" fill="#06B6D4"/>
  
  <!-- GURU text -->
  <path d="M38 12.4V25H34.5V12.4H38Z" fill="white"/>
  <path d="M38 5.5V9H34.5V5.5H38Z" fill="#06B6D4"/>
  <path d="M53.15 12.4V25H49.85V23.2C49.3833 23.8 48.8 24.2667 48.1 24.6C47.4 24.9333 46.6333 25.1 45.8 25.1C44.5667 25.1 43.4667 24.8 42.5 24.2C41.5333 23.5667 40.7833 22.7 40.25 21.6C39.7167 20.5 39.45 19.2333 39.45 17.8C39.45 16.3667 39.7167 15.1 40.25 14C40.7833 12.9 41.5333 12.0333 42.5 11.4C43.4667 10.7667 44.5667 10.45 45.8 10.45C46.6 10.45 47.3333 10.6167 48 10.95C48.6667 11.2833 49.2333 11.7333 49.7 12.3V12.4H53.15ZM46.5 22.1C47.6 22.1 48.5 21.7 49.2 20.9C49.9 20.0667 50.25 19 50.25 17.7C50.25 16.4 49.9 15.35 49.2 14.55C48.5 13.75 47.6 13.35 46.5 13.35C45.4 13.35 44.5 13.75 43.8 14.55C43.1 15.35 42.75 16.4 42.75 17.7C42.75 19 43.1 20.0667 43.8 20.9C44.5 21.7 45.4 22.1 46.5 22.1Z" fill="white"/>
  <path d="M67.25 10.5V25H63.95V23.4C63.5167 23.9333 62.95 24.3667 62.25 24.7C61.55 25.0333 60.8 25.2 60 25.2C57.9 25.2 56.35 24.4 55.35 22.8C54.35 21.2 53.85 19.1667 53.85 16.7V10.5H57.35V16.7C57.35 18.3 57.6167 19.5 58.15 20.3C58.6833 21.0667 59.5 21.45 60.6 21.45C61.7 21.45 62.5167 21.0667 63.05 20.3C63.5833 19.5 63.85 18.3 63.85 16.7V10.5H67.25Z" fill="white"/>
  <path d="M83.5 10.5V25H80.25V10.5H83.5ZM80.25 5.5V8.75H77V5.5H80.25ZM83.5 5.5V8.75H86.75V5.5H83.5Z" fill="#06B6D4"/>
  <path d="M99.05 10.5V25H95.75V23.4C95.3167 23.9333 94.75 24.3667 94.05 24.7C93.35 25.0333 92.6 25.2 91.8 25.2C89.7 25.2 88.15 24.4 87.15 22.8C86.15 21.2 85.65 19.1667 85.65 16.7V10.5H89.15V16.7C89.15 18.3 89.4167 19.5 89.95 20.3C90.4833 21.0667 91.3 21.45 92.4 21.45C93.5 21.45 94.3167 21.0667 94.85 20.3C95.3833 19.5 95.65 18.3 95.65 16.7V10.5H99.05Z" fill="white"/>
  
  <!-- AI badge -->
  <rect x="101" y="12" width="16" height="13" rx="6.5" fill="url(#paint1_linear)"/>
  <path d="M107.167 21V16.6H107.167L105.917 20.12H105.167L103.917 16.6V21H103.167V15.8H104.237L105.547 19.48L106.857 15.8H107.927V21H107.167Z" fill="white"/>
  <path d="M112.17 21V15.8H112.93V21H112.17ZM110.77 17.06V16.4H112.93V17.06H110.77Z" fill="white"/>
  
  <defs>
    <linearGradient id="paint0_linear" x1="0" y1="0" x2="26.6667" y2="26.6667" gradientUnits="userSpaceOnUse">
      <stop stop-color="#06B6D4"/>
      <stop offset="1" stop-color="#3B82F6"/>
    </linearGradient>
    <linearGradient id="paint1_linear" x1="101" y1="12" x2="117" y2="25" gradientUnits="userSpaceOnUse">
      <stop stop-color="#06B6D4"/>
      <stop offset="1" stop-color="#3B82F6"/>
    </linearGradient>
  </defs>
</svg> 